<svg fill="#000000" version="1.1" id="Capa_1" xmlns="http://www.w3.org/2000/svg"
  xmlns:xlink="http://www.w3.org/1999/xlink" width="800px" height="800px" viewBox="0 0 442.04 442.04"
  xml:space="preserve">
  <g>
    <g>
      <path
        d="M 0 120.284 c -49.708 0 -103.206 -19.44 -154.71 -56.22 C -193.212 36.57 -216.976 9.331 -217.969 8.183 c -4.068 -4.697 -4.068 -11.669 0 -16.367 c 0.993 -1.146 24.756 -28.387 63.259 -55.881 c 51.505 -36.777 105.003 -56.219 154.71 -56.219 c 49.708 0 103.207 19.441 154.71 56.219 c 38.502 27.494 62.266 54.734 63.259 55.881 c 4.068 4.697 4.068 11.669 0 16.367 c -0.993 1.146 -24.756 28.387 -63.259 55.881 C 103.207 100.843 49.709 120.284 0 120.284 z M -191.382 0.001 c 9.61 9.799 27.747 27.03 51.694 44.071 c 32.83 23.361 83.714 51.212 139.688 51.212 s 106.859 -27.851 139.688 -51.212 c 23.944 -17.038 42.082 -34.271 51.694 -44.071 c -9.609 -9.799 -27.747 -27.03 -51.694 -44.071 c -32.829 -23.362 -83.714 -51.212 -139.688 -51.212 s -106.858 27.85 -139.688 51.212 C -163.632 -27.032 -181.77 -9.801 -191.382 0.001 z"
        transform="translate(221.02 221.02)">
        <animateTransform attributeName="transform" type="scale" additive="sum" from="1 0" to="1 1" begin="0s" dur="1s"
          repeatCount="indefinite" />
      </path>
    </g>
    <g>
      <path d="M221.02,298.521c-42.734,0-77.5-34.767-77.5-77.5c0-42.733,34.766-77.5,77.5-77.5c18.794,0,36.924,6.814,51.048,19.188
			c5.193,4.549,5.715,12.446,1.166,17.639c-4.549,5.193-12.447,5.714-17.639,1.166c-9.564-8.379-21.844-12.993-34.576-12.993
			c-28.949,0-52.5,23.552-52.5,52.5s23.551,52.5,52.5,52.5c28.95,0,52.5-23.552,52.5-52.5c0-6.903,5.597-12.5,12.5-12.5
			s12.5,5.597,12.5,12.5C298.521,263.754,263.754,298.521,221.02,298.521z">
        <animateTransform attributeName="transform" attributeType="XML" type="rotate" from="0 221 221" to="360 221 221"
          dur="10s" repeatCount="indefinite" />
      </path>
    </g>
    <g>
      <path
        d="M221.02,246.021c-13.785,0-25-11.215-25-25s11.215-25,25-25c13.786,0,25,11.215,25,25S234.806,246.021,221.02,246.021z" />
    </g>
  </g>
</svg>